<svg width="70" height="25" viewBox="0 0 70 25" fill="none" xmlns="http://www.w3.org/2000/svg">
<path d="M4.761 2.061H3.627V2.556C3.267 2.178 2.772 1.962 2.205 1.962C0.999 1.962 0 3.006 0 4.383C0 5.751 0.999 6.795 2.205 6.795C2.772 6.795 3.267 6.579 3.627 6.201V6.696H4.761V2.061ZM3.573 4.392C3.573 5.112 3.042 5.697 2.385 5.697C1.728 5.697 1.197 5.13 1.197 4.392C1.197 3.636 1.728 3.06 2.385 3.06C3.042 3.06 3.573 3.654 3.573 4.392Z" transform="translate(12.372 17.968)" fill="#FFFCFA" fill-opacity="0.5"/>
<path d="M15.3199 2.061H14.1319V4.77C14.1319 5.283 13.7629 5.679 13.2319 5.679C12.4579 5.679 12.3679 5.031 12.3679 4.77V2.061H11.1799V4.77C11.1799 5.985 11.9089 6.804 13.0069 6.804C13.4929 6.804 13.8979 6.606 14.1859 6.273V6.696H15.3199V2.061Z" transform="translate(12.372 17.968)" fill="#FFFCFA" fill-opacity="0.5"/>
<path d="M26.2924 0H25.1044V2.502C24.7444 2.16 24.2764 1.962 23.7364 1.962C22.5304 1.962 21.5314 3.006 21.5314 4.383C21.5314 5.751 22.5304 6.795 23.7364 6.795C24.3034 6.795 24.7894 6.579 25.1584 6.201V6.696H26.2924V0ZM25.1044 4.392C25.1044 5.112 24.5734 5.697 23.9164 5.697C23.2594 5.697 22.7284 5.13 22.7284 4.392C22.7284 3.636 23.2594 3.06 23.9164 3.06C24.5734 3.06 25.1044 3.654 25.1044 4.392Z" transform="translate(12.372 17.968)" fill="#FFFCFA" fill-opacity="0.5"/>
<path d="M34.0151 0.45H32.8271V1.557H34.0151V0.45ZM34.0151 2.061H32.8271V6.696H34.0151V2.061Z" transform="translate(12.372 17.968)" fill="#FFFCFA" fill-opacity="0.5"/>
<path d="M42.5902 1.944C41.3032 1.944 40.2592 2.997 40.2592 4.383C40.2592 5.769 41.3032 6.804 42.5902 6.804C43.8772 6.804 44.9302 5.769 44.9302 4.383C44.9302 2.997 43.8772 1.944 42.5902 1.944ZM42.5902 5.715C41.9602 5.715 41.4472 5.175 41.4472 4.392C41.4472 3.591 41.9602 3.033 42.5902 3.033C43.2202 3.033 43.7332 3.591 43.7332 4.392C43.7332 5.175 43.2202 5.715 42.5902 5.715Z" transform="translate(12.372 17.968)" fill="#FFFCFA" fill-opacity="0.5"/>
<path d="M6.248 0C2.684 0 0.374 1.826 0.374 4.444C0.374 7.722 3.234 8.558 6.05 9.108C8.866 9.658 9.658 10.252 9.658 11.22C9.658 12.672 7.92 13.266 6.248 13.266C4.708 13.266 2.904 12.408 2.904 10.604H0C0 14.278 3.256 15.928 6.248 15.928C10.098 15.928 12.562 14.08 12.562 11.132C12.562 8.008 10.274 7.106 6.644 6.38C4.312 5.896 3.278 5.522 3.278 4.466C3.278 3.3 4.708 2.706 6.248 2.706C8.096 2.706 9.196 3.696 9.196 5.016H12.1C12.1 2.596 10.274 0 6.248 0Z" transform="translate(0.186005)" fill="#FFFCFA"/>
<path d="M24.5621 10.01H21.6581V11.088C21.6581 12.122 21.0201 13.178 19.5901 13.178C18.1381 13.178 17.5001 12.122 17.5001 11.088V7.062H24.4521V4.334H17.5001V1.452H14.5961V10.934C14.5961 13.794 16.5541 15.928 19.5901 15.928C22.6261 15.928 24.5621 13.794 24.5621 10.934V10.01Z" transform="translate(0.186005)" fill="#FFFCFA"/>
<path d="M36.8369 9.042C36.8369 6.05 35.0769 4.048 32.4149 4.048C31.2049 4.048 30.2149 4.576 29.4889 5.434V4.334H26.7169V15.664H29.6209V9.042C29.6209 7.766 30.5229 6.798 31.8209 6.798C33.7349 6.798 33.9329 8.382 33.9329 9.042V9.614H36.8369V9.042Z" transform="translate(0.186005)" fill="#FFFCFA"/>
<path d="M43.8292 4.048C40.6832 4.048 38.1312 6.622 38.1312 10.01C38.1312 13.398 40.6832 15.928 43.8292 15.928C46.9752 15.928 49.5492 13.398 49.5492 10.01C49.5492 6.622 46.9752 4.048 43.8292 4.048ZM43.8292 13.266C42.2892 13.266 41.0352 11.946 41.0352 10.032C41.0352 8.074 42.2892 6.71 43.8292 6.71C45.3692 6.71 46.6232 8.074 46.6232 10.032C46.6232 11.946 45.3692 13.266 43.8292 13.266Z" transform="translate(0.186005)" fill="#FFFCFA"/>
<path d="M68.8894 9.042C68.8894 6.072 67.1294 4.048 64.0934 4.048C62.6414 4.048 61.4534 4.664 60.6394 5.654C59.8474 4.642 58.6594 4.048 57.2514 4.048C56.0194 4.048 55.0294 4.576 54.3254 5.434V4.334H51.5314V15.664H54.4574V9.042C54.4574 7.766 55.3594 6.798 56.6354 6.798C58.5494 6.798 58.7474 8.382 58.7474 9.042V15.664H61.6734V9.042C61.6734 7.766 62.5754 6.798 63.8734 6.798C65.7654 6.798 65.9854 8.382 65.9854 9.042V15.664H68.8894V9.042Z" transform="translate(0.186005)" fill="#FFFCFA"/>
</svg>
